<?xml version="1.0" standalone="no"?>
<!DOCTYPE svg PUBLIC "-//W3C//DTD SVG 20010904//EN"
 "http://www.w3.org/TR/2001/REC-SVG-20010904/DTD/svg10.dtd">
<svg version="1.0" xmlns="http://www.w3.org/2000/svg"
 width="700.000000pt" height="700.000000pt" viewBox="0 0 700.000000 700.000000"
 preserveAspectRatio="xMidYMid meet">
<metadata>
Created by potrace 1.14, written by Peter Selinger 2001-2017
</metadata>
<g transform="translate(0.000000,700.000000) scale(0.100000,-0.100000)"
fill="#000000" stroke="none">
<path d="M1230 6989 c-232 -27 -499 -137 -687 -282 -86 -66 -216 -202 -282
-294 -111 -155 -189 -334 -233 -536 l-23 -102 0 -2275 0 -2275 23 -102 c62
-280 183 -507 374 -702 231 -234 530 -378 855 -411 76 -8 770 -10 2318 -8
l2210 4 97 22 c564 130 966 533 1090 1095 l23 102 0 2275 0 2275 -23 102 c-63
286 -189 518 -387 714 -197 195 -420 316 -703 381 l-97 22 -2240 2 c-1235 1
-2274 -2 -2315 -7z m6 -704 c42 -17 69 -71 55 -107 -5 -13 -67 -80 -138 -150
-146 -144 -165 -153 -223 -100 -46 40 -51 96 -13 142 50 62 201 200 235 215
42 18 42 18 84 0z m4609 0 c20 -8 88 -66 152 -128 l116 -115 -6 -42 c-7 -57
-48 -100 -96 -100 -31 0 -48 14 -173 137 -146 145 -156 162 -122 212 15 20 64
49 87 51 4 0 23 -7 42 -15z m-4386 -445 c0 -8 -8 -40 -17 -70 l-18 -55 -77 0
c-42 0 -77 2 -77 4 0 8 54 180 68 215 l15 39 53 -59 c29 -32 53 -66 53 -74z
m4233 -10 l36 -111 -80 3 -81 3 -18 50 c-10 28 -18 55 -18 61 -1 10 107 104
119 104 3 0 22 -50 42 -110z m-4472 -31 c0 -22 -23 -89 -31 -89 -9 0 -53 60
-48 64 9 7 65 35 72 36 4 0 7 -5 7 -11z m4640 -29 c0 -13 -58 -61 -64 -52 -3
5 -8 27 -12 50 l-6 41 41 -16 c22 -9 41 -19 41 -23z m-4237 -103 l40 -49 -22
-70 -23 -71 -74 5 c-41 3 -77 8 -81 11 -3 4 11 66 32 137 l38 130 25 -22 c13
-13 42 -45 65 -71z m3879 -44 l35 -128 -36 -7 c-20 -4 -55 -7 -79 -7 -41 -1
-43 0 -62 45 -37 84 -37 84 30 157 34 37 65 67 69 67 4 0 24 -57 43 -127z
m-4096 -49 c-4 -15 -10 -39 -13 -55 -3 -16 -8 -29 -12 -29 -4 0 -23 20 -44 44
l-37 45 42 9 c69 16 71 15 64 -14z m4257 10 c15 -3 27 -9 27 -13 0 -13 -78
-83 -83 -74 -9 16 -18 84 -12 94 4 5 14 8 23 5 10 -3 29 -8 45 -12z m-3863
-115 l53 -61 -25 -71 -25 -72 -77 -3 c-42 -2 -76 -1 -76 2 0 14 32 138 44 172
28 77 36 94 44 94 5 0 33 -27 62 -61z m3470 58 c0 -4 62 -217 75 -256 5 -18 2
-19 -57 -14 -35 3 -71 10 -81 15 -16 8 -67 107 -67 129 0 14 104 128 118 129
6 0 12 -2 12 -3z m-2586 -81 c43 -18 100 -77 126 -132 22 -45 41 -195 24 -193
-5 0 -43 12 -84 27 -70 26 -75 29 -83 64 -5 23 -22 49 -43 68 -32 28 -40 30
-112 30 l-78 0 -32 45 c-22 31 -28 47 -20 50 71 25 192 54 226 54 23 1 58 -5
76 -13z m1835 -14 c47 -15 86 -32 88 -38 2 -6 -7 -26 -20 -45 -23 -34 -24 -34
-98 -34 -103 0 -129 -20 -163 -127 -5 -18 -143 -65 -154 -53 -4 4 -6 33 -5 66
6 143 110 258 233 258 19 0 73 -12 119 -27z m-2926 -79 c2 -5 -1 -27 -7 -51
l-11 -43 -34 35 c-19 20 -33 37 -30 39 11 8 55 26 66 26 6 1 14 -2 16 -6z
m3860 -4 l38 -10 -30 -35 c-17 -19 -34 -35 -38 -35 -4 0 -13 20 -19 45 -13 52
-12 52 49 35z m-3454 -82 c48 -50 48 -48 5 -142 -27 -58 -31 -60 -116 -71 -47
-5 -58 -4 -58 8 0 8 18 66 40 129 22 63 43 120 45 127 7 18 30 3 84 -51z
m3122 -64 c23 -71 44 -134 47 -141 4 -11 -9 -12 -59 -6 -35 3 -70 11 -77 17
-8 6 -29 42 -48 79 l-34 68 57 55 c32 30 61 54 65 55 3 0 25 -57 49 -127z
m-2600 -16 c26 -20 41 -57 34 -87 -4 -17 -33 -53 -73 -91 -94 -88 -300 -287
-478 -461 -136 -134 -154 -148 -186 -148 -51 0 -90 52 -80 107 3 15 73 91 181
196 97 94 239 236 316 314 77 79 154 153 170 163 34 22 92 26 116 7z m2070 -5
c51 -34 658 -639 668 -666 8 -20 7 -36 -3 -61 -17 -39 -42 -55 -86 -55 -27 0
-72 40 -375 336 -189 185 -346 343 -349 351 -21 54 23 113 83 113 20 0 48 -8
62 -18z m-2827 -79 c-4 -21 -7 -39 -8 -40 -4 -4 -66 42 -66 49 0 7 47 26 68
27 10 1 11 -9 6 -36z m3500 27 c32 -12 33 -30 2 -59 -27 -25 -31 -22 -41 32
-8 40 -3 43 39 27z m-343 -52 c18 -29 54 -76 81 -105 49 -53 59 -79 33 -89
-16 -6 -40 12 -149 113 l-69 64 33 34 c19 19 35 35 36 35 1 0 17 -24 35 -52z
m-2764 16 l35 -26 -39 -31 c-21 -17 -68 -61 -104 -99 -47 -50 -70 -67 -82 -62
-26 10 -21 21 36 93 30 36 64 85 77 109 13 23 28 42 33 42 6 0 26 -12 44 -26z
m353 -408 l54 -56 -47 -48 c-47 -48 -47 -48 -47 -117 l0 -69 -56 54 c-30 30
-78 81 -106 112 l-50 58 73 79 73 80 25 -19 c14 -10 51 -44 81 -74z m2155 4
l80 -80 -108 -108 -107 -107 0 72 0 72 -50 42 -51 43 73 73 c40 40 75 73 78
73 3 0 41 -36 85 -80z m-354 23 c-11 -16 -111 -122 -223 -236 l-203 -208 -385
1 -385 0 -217 222 c-120 123 -217 229 -218 236 0 9 172 12 826 12 l825 0 -20
-27z m1194 -108 c79 -116 99 -159 91 -192 -10 -37 -114 -160 -142 -167 -28 -7
-100 22 -127 52 -14 16 -12 21 28 70 59 71 64 104 30 198 -29 80 -30 76 19
132 11 12 23 19 26 15 4 -5 38 -53 75 -108z m-3885 65 l32 -40 -20 -27 c-58
-83 -52 -162 17 -236 l46 -49 -29 -23 c-44 -35 -102 -58 -128 -52 -34 9 -128
128 -135 171 -4 27 1 49 21 88 27 56 142 208 156 208 5 0 23 -18 40 -40z
m1040 -157 c18 -21 190 -197 382 -391 l350 -353 -77 -84 -77 -85 -67 59 c-63
57 -444 447 -565 579 l-58 64 4 103 c2 84 6 107 22 124 28 30 50 26 86 -16z
m1767 15 c21 -20 23 -29 23 -133 l0 -111 -202 -200 c-112 -110 -304 -299 -428
-420 -1176 -1151 -1714 -1682 -1744 -1723 -40 -54 -81 -139 -72 -149 3 -3 18
5 33 19 46 41 1106 1044 1715 1621 317 301 623 591 680 645 56 54 172 171 257
261 85 89 159 162 165 162 14 0 166 -151 166 -165 0 -21 -549 -554 -1195
-1161 -368 -346 -794 -746 -945 -889 -594 -562 -816 -744 -1042 -858 -140 -71
-165 -79 -153 -49 3 9 52 150 108 312 l101 295 116 120 c64 66 334 345 601
620 266 275 771 798 1123 1163 351 364 645 662 654 662 9 0 26 -10 39 -22z
m-1691 -611 l421 -424 -89 -77 -89 -78 -167 160 c-92 89 -317 311 -500 495
l-334 334 79 90 78 89 90 -82 c50 -45 280 -273 511 -507z m2029 -1313 l-7 -48
-84 86 -84 85 0 442 c0 312 3 449 11 464 7 11 44 51 83 89 l71 68 9 -570 c5
-313 5 -590 1 -616z m-2431 1096 l76 -80 0 -451 0 -452 -76 -74 c-42 -40 -81
-73 -85 -73 -5 0 -9 266 -9 605 0 333 4 605 9 605 5 0 43 -36 85 -80z m2209
-1157 c304 -304 547 -554 558 -576 16 -30 209 -579 209 -594 0 -12 -42 5 -156
61 -195 97 -364 222 -599 445 -202 192 -725 716 -725 726 0 6 29 39 64 74 49
48 68 62 83 57 11 -4 98 -86 194 -183 416 -423 796 -772 829 -761 5 1 -9 35
-32 73 -32 54 -124 153 -397 430 -443 449 -671 688 -671 706 0 21 62 79 84 79
13 0 204 -184 559 -537z m-2133 -1031 c0 -63 4 -102 12 -110 17 -17 2139 -17
2156 0 8 8 12 47 12 110 0 54 3 98 6 98 3 0 32 -23 65 -51 82 -72 96 -108 104
-254 18 -322 -72 -503 -285 -577 l-65 -23 -910 0 c-854 0 -914 1 -970 18 -119
37 -204 111 -259 226 l-31 66 -3 219 -3 219 78 79 c42 43 81 78 85 78 5 0 8
-44 8 -98z"/>
<path d="M3183 4534 c-15 -24 -15 -29 -2 -53 28 -49 109 -32 109 24 0 54 -77
75 -107 29z"/>
<path d="M3766 4544 c-34 -34 -9 -94 39 -94 30 0 55 25 55 55 0 13 -7 31 -16
39 -8 9 -26 16 -39 16 -13 0 -31 -7 -39 -16z"/>
<path d="M3402 4538 c-7 -7 -12 -21 -12 -33 0 -38 19 -45 123 -45 105 0 137 9
137 40 0 40 -25 50 -134 50 -66 0 -106 -4 -114 -12z"/>
<path d="M3426 1228 c-52 -14 -112 -76 -126 -130 -34 -123 53 -238 179 -238
112 0 191 79 191 190 0 64 -44 136 -100 165 -37 19 -100 25 -144 13z"/>
</g>
</svg>
