<svg xmlns="http://www.w3.org/2000/svg" width="711" height="761" fill="none" viewbox="0 0 711 761"><path fill="#F9FAFA" d="M472.894 239.049c1.074-.811 2.148-1.622 3.711-2.049 2.099 1.53 3.708 2.675 5.317 3.821 0 0 .499.341.578.679.622.622.725 3.339.732 4.95.047 9.767.309 19.283.268 29.05C378 378 180 572.393 172.5 580c-9.017 9.146-16.893 18.816-21.452 32.999.714.242 1.596.232 2.827.232C156 611.5 487.5 297.5 494.757 289.997c8.654 1.513 16.648 2.809 24.498 4.701 4.209 1.014 8.172 3.051 12.245 4.627-8.981 8.881-17.779 17.956-26.973 26.612-69.475 65.406-139.033 130.723-208.553 196.081-25.726 24.186-51.032 48.836-77.256 72.469-20.259 18.257-41.068 36.024-62.774 52.504-11.52 8.747-25.435 14.359-38.356 21.223-2.584 1.372-5.56 2.006-9.445 3.36 2.301-6.65 4.28-12.337 6.236-18.033 7.353-21.417 14.632-42.86 22.131-64.226.887-2.528 2.64-4.951 4.533-6.897 110.956-114.099 221.428-228.511 331.851-343.369Z"/><path fill="#F8F9FA" d="M453.365 495.83c-7.771-7.99-15.494-16.026-23.318-24.678 4.343-5.229 8.765-9.82 13.187-14.412 16.742 16.665 33.51 33.304 50.219 50.002 23.429 23.412 46.563 47.128 70.382 70.136 6.615 6.391 10.806 13.231 13.597 21.879 7.707 23.882 16.192 47.513 24.616 71.961-49.122-17.442-85.014-52.284-121.197-87.448-3.015-15.227-6.03-29.746-8.966-44.28-.241-1.195.053-2.499.099-3.751 25.637 24.992 50.642 49.469 78.21 72.3 3.387 2.41 6.277 4.475 9.166 6.539l1.39-1.071-6.207-11.887s-.033-.114-.083-.529c-2.853-3.807-5.656-7.2-8.459-10.593-30.224-31.932-61.957-62.624-92.636-94.168Z"/><path fill="#F9FAFA" d="M226.984 272.006c.026-8.372.052-16.743.103-25.858.271-1.893.518-3.043.764-4.193 1.233-1.257 2.466-2.515 4.326-4.025 1.702-.175 2.776-.098 3.851-.02 18.708 19.194 37.36 38.442 56.145 57.561 11.442 11.646 23.091 23.087 34.638 34.63 1.688 1.688 3.325 3.428 5.042 5.808-6.433 7.38-12.881 14.135-19.482 20.739-.601.601-2.017.506-3.371.352-15.692-14.169-30.672-30.83-45.655-46.262-1.686-1.582-2.984-2.738-4.281-3.894-10.27-10.806-20.54-21.612-31.054-32.907-.505-.97-.765-1.451-1.026-1.931Z"/><path fill="#FAFBFB" d="M280.926 353.827c2.55 2.617 5.026 5.306 7.271 8.369-8.931 6.539-17.597 12.671-26.263 18.804-18.92-18.621-37.85-37.23-56.754-55.867-7.684-7.576-15.311-15.211-23.058-23.447.4-1.229 7.837-5.012 8.473-5.324 3.084-1.609 22.202-5.864 28.384-4.413 14.521 11.551 49.531 49.137 61.947 61.878Z"/><path fill="#F6F7F8" d="M488.936 171.08c-7.25-6.988-7.906-12.119-2.483-17.996 5.054-5.477 13.384-5.677 19.623.355 27.994 27.065 55.387 54.728 83.518 81.669 4.378 4.193 7.212 8.968 4.994 15.11-1.769 4.897-5.51 7.7-10.878 8.295-3.928.436-6.58-1.398-9.176-3.993-28.182-28.184-56.901-55.782-85.598-83.44ZM202.471 155.465c2.217-1.781 4.025-3.587 6.167-4.805 5.419-3.084 13.172-1.405 16.701 3.37 3.484 4.713 2.557 11.107-2.354 15.772-13.034 12.382-26.222 24.605-39.101 37.146-15.737 15.324-31.265 30.863-46.791 46.401-5.583 5.588-12.701 6.731-17.212 2.403-5.543-5.319-5.666-13.277.232-19.042 15.475-15.124 31.265-29.927 46.696-45.097 11.984-11.782 23.616-23.923 35.662-36.148Z"/><path fill="#939EAC" d="M472.009 535.275c.03 1.593-.365 2.52-.124 3.714 2.936 14.535 6.125 29.348 8.978 44.281-.95-.102-2.063-.776-2.722-1.436a92490.71 92490.71 0 0 1-73.953-74.285c-.937-.943-1.755-2.008-2.714-2.927-2.169-2.079-1.906-3.84.267-5.842 4.648-4.281 9.229-8.642 13.664-13.142 2.818-2.859 4.945-2.78 7.818.149 13.748 14.013 27.679 27.848 41.548 41.743 2.346 2.35 4.808 5.062 7.238 7.745Z"/><path fill="#FCFCFC" d="M183.875 502.004c.08-4.378.161-8.755.226-13.897-.122-1.222-.227-1.678-.162-2.353.21-.398.249-.578.545-1.082.33-20.337.411-40.35.446-60.363.001-.759-.446-1.518-.684-2.278.004-15.976.009-31.952.383-48.37 7.856 6.902 15.342 14.245 22.879 22.037-.006 29.982-.064 59.515-.388 89.188-.448.893-.63 1.647-.997 2.676-6.508 6.653-12.831 13.031-19.47 19.313-.973-.087-1.629-.08-2.342-.362a236.76 236.76 0 0 1-.436-4.509ZM527.093 373.925c.042 2.403.083 4.805.129 8.096.053 40.293.111 79.698.127 119.103.001 2.608-.325 5.216-.499 7.824-6.935-6.673-14.007-13.213-20.699-20.122-1.493-1.54-2.304-4.368-2.32-6.612-.153-20.424-.061-40.85.241-62.063.395-6.426.952-12.1.509-17.694-.535-6.761 1.732-11.964 6.676-16.307 3.239-2.846 6.278-5.928 9.625-8.634 1.837-1.486 4.126-2.413 6.211-3.591Z"/><path fill="#939FAD" d="M219 292c-12.5 0-22.557 1.949-33.683 7.406-.635.312-2.627 1.319-3.221 2.28-11.497-11.133-23.061-23.484-33.309-33.818l21.571-24.8c16.488 16.026 32.26 31.356 48.337 47.089.243.582.367 1.665.305 1.843Z"/><path fill="#95A0AD" d="M531.981 299.315c-4.378-1.471-8.341-3.509-12.549-4.523-7.851-1.891-15.845-3.187-24.21-4.861 2.25-3.032 4.878-5.986 7.62-8.83 10.971-11.378 22.054-22.651 32.917-34.133 2.59-2.738 4.549-3.349 7.365-.505 5.383 5.436 10.81 10.84 16.451 16.005 3.792 3.471 3.055 6.085-.297 9.385-9.129 8.986-18.012 18.221-27.297 27.462Z"/><path fill="#F5F6F7" d="M655.795 7.978c6.636-8.128 15.393-9.845 22.945-3.432 10.003 8.494 19.416 17.725 28.636 27.08 4.666 4.736 3.261 13.962-2 19.046-5.418 5.236-11.03 5.706-16.797.296-10.681-10.018-20.944-20.483-31.355-30.789-3.552-3.516-3.922-7.527-1.429-12.201Z"/><path fill="#F6F7F8" d="M43.48 30.478c-6.905 6.765-13.488 13.355-20.222 19.787-5.656 5.401-11.996 5.593-17.241.774C.508 45.98-.796 36.983 3.652 31.612c3.169-3.826 6.907-7.195 10.505-10.648 5.64-5.41 11.135-11.01 17.135-15.995C38.02-.62 45.82-.667 51.365 4.083c5.217 4.47 6.023 11.091 1.644 16.392-2.852 3.45-6.167 6.52-9.53 10.003Z"/><path fill="#F3F4F5" d="M211.319 134.955c-2.967-4.01-5.658-7.769-9.215-12.738 10.508-2.882 20.027-6.656 29.863-7.885 11.288-1.411 20.16 4.703 26.562 13.856 6.952 9.941 7.668 21.21 6.823 32.194-7.052-2.347-13.702-4.473-20.265-6.842-.934-.338-1.938-1.79-2.072-2.835-1.787-13.893-12.736-18.973-25.226-16.053-1.999.467-4.126.384-6.47.303Z"/><path fill="#F5F6F7" d="M82.025 230.975c4.144-5.404 8.06-10.534 12.213-15.975l9.877 11.553c-11.528 15.351-11.796 29.808 6.634 42.737-5.661 3.668-9.852 7.171-14.653 9.297-6.176 2.736-8.98 1.486-13.282-3.765-3.474-4.242-7.367-8.209-10.316-12.786-1.608-2.497-2.569-6.125-2.206-9.043 1.063-8.559 6.378-15.166 11.733-22.018Z"/><path fill="#F4F5F6" d="M503.539 128.637c-2.466 5.662-5.862 6.825-11.857 5.587-13.903-2.871-20.574 2.227-23.75 16.341-.261 1.158-1.332 2.691-2.361 3.029-6.232 2.043-12.561 3.788-19.323 5.77-1.102-12.38.246-24.809 9.414-34.969 8.477-9.394 19.369-11.879 31.415-8.489 6.673 1.879 13.152 4.449 20.191 6.869a477.758 477.758 0 0 1-3.729 5.862ZM603.184 271.873c-1.304-1.153-.684-.373-1.339-1.777 3.655-4.596 5.304-7.267 8.37-10.508 5.835-6.167 5.717-13.04 3.159-20.387-.272-.779-.709-1.5-1.049-2.257-5.361-11.93-5.361-11.931 4.837-21.972 6.752 9.881 13.744 19.499 20.046 29.55 4.295 6.852 4.895 13.893-1.825 20.259-3.107 2.943-5.454 6.681-8.191 10.021-4.171 5.091-9.194 6.107-14.905 2.866-3.024-1.716-5.884-3.722-9.103-5.795Z"/><path fill="#98A0AA" d="M397.803 275.593c18.794-20.708 37.705-41.468 57.156-62.867-70.443 0-140.821.426-211.647.387 1.357-.522 3.352-1.853 5.252-1.855 72.999-.076 146.408-.038 219.27.114.139.472.456 1.318.595 1.79-4.664 5.085-9.24 10.253-14.009 15.238-13.229 13.828-26.73 27.403-39.714 41.457-4.613 4.994-9.729 7.606-16.903 5.736Z"/><path fill="#949FAA" d="M261.986 380.723c8.614-6.447 17.28-12.58 26.323-18.773 2.056 1.361 3.796 2.719 5.403 4.218 4.938 4.605 9.825 9.266 15.806 14.92l-25.089 21.779c-6.721-6.552-14.555-14.19-22.443-22.144Z"/><path fill="#919CA8" d="M527.226 373.476c-2.218 1.627-4.507 2.554-6.344 4.04-3.347 2.706-6.386 5.788-9.625 8.634-4.944 4.343-7.211 9.546-6.676 16.307.443 5.594-.114 11.268-.483 17.227-.469-4.783-.813-9.884-.869-14.988-.132-12.283-.311-24.572-.038-36.848.06-2.691 1.262-5.963 3.079-7.896 6.203-6.604 12.915-12.73 19.433-19.039l1.655.6c0 10.505 0 21.009-.132 31.963ZM207.104 363.823c.383 10.292.533 20.4.519 30.967-7.652-6.884-15.138-14.227-22.958-21.583-.334-10.351-.334-20.687-.334-31.024l1.683-.813c6.953 7.423 13.906 14.846 21.09 22.453Z"/><path fill="#F0F2F4" d="M123.289 140.617c-6.517.392-12.611.766-19.226 1.172 2.554-12.729 4.85-25.347 11.807-38.084 5.553 6.041 10.544 11.464 15.515 16.906.199.218.356.679.265.928-2.298 6.3-4.626 12.589-6.992 18.863-.061.162-.619.136-1.369.215ZM630.799 103.814c.498 2.116.913 3.858 1.482 6.24l-21.313 1.705c-2.108-5.334-4.215-10.199-5.896-15.206-.499-1.485-.443-3.918.46-4.983 5.013-5.913 10.365-11.538 16.554-18.302 3.098 10.83 5.865 20.5 8.713 30.546ZM103.425 99.665c-1.345 4.164-2.55 7.958-3.886 12.165l-22.017-1.689 11.01-36.911c6.243 6.836 11.918 12.556 16.835 18.867.936 1.202-1.124 4.738-1.942 7.568ZM129.495 164.128c3.809-10.956 7.566-21.521 11.635-32.964 5.939 5.291 10.909 9.551 15.605 14.095.656.635.333 2.818-.169 4.021-2.608 6.251-5.42 12.416-7.918 18.061l-20.038 2.835c.287-1.95.56-3.804.885-6.048ZM585.912 112.88c2.716-3.084 5.194-5.905 7.673-8.726l2.046.6 11.175 37.501c-7.22-.685-13.298-1.103-19.312-1.967-1.171-.168-2.447-1.904-3.06-3.205-1.553-3.296-2.36-6.992-4.196-10.095-2.532-4.279-1.59-7.356 1.962-10.271 1.276-1.048 2.323-2.374 3.712-3.837ZM559.67 140.669c2.942-3.138 5.636-6.027 9.521-10.193l13.589 39.358c-7.181-.818-12.872-1.308-18.489-2.243-1.087-.181-2.127-1.975-2.773-3.238-2.789-5.459-5.424-10.997-8.9-18.112 1.869-1.462 4.337-3.392 7.052-5.572ZM59.908 54.698c1.273-3.24 2.434-6.108 3.905-9.745 5.334 5.796 10.005 10.87 14.673 15.946.111.122.307.3.279.396-1.795 6.085-3.595 12.168-5.472 18.228-.073.236-.903.362-1.368.333-3.148-.197-6.29-.597-9.439-.64-3.11-.043-6.223.258-10.355.457 2.682-8.61 5.174-16.607 7.777-24.975Z"/><path fill="#95A0AD" d="M443.242 456.75c-4.4 4.882-8.665 9.454-13.187 14.402-6.397-6.229-12.833-13.142-19.202-19.656-2.152-2.202-2.291-3.866-.138-6.316 9.728-11.07 9.618-11.091 19.954-.705 3.983 4.001 8.335 8.09 12.573 12.275Z"/><path fill="#F0F2F4" d="M636.804 78.813c-1.971-4.954-3.646-9.78-4.991-14.697-.292-1.07.197-2.946 1.014-3.632 5.058-4.246 10.313-8.259 15.334-12.216l9.923 30.639c-7.356 0-14.111 0-21.28-.094Z"/><path fill="#F4F5F6" d="m195.963 218.963 10.782-12.658 22.015 20.675c-3.954 3.752-7.382 7.004-11.156 10.666-.785.88-.815 1.489-1.998 1.951-6.664-5.728-12.826-11.536-18.934-17.389-.664-.636-.493-2.143-.709-3.245Z"/><path fill="#F3F4F5" d="M495.841 239.557c-4.522-3.744-9.043-7.91-14.017-12.028 6.184-6.338 12.435-12.853 18.892-19.157.511-.5 2.824.046 3.654.809 3.771 3.467 7.603 7.619 11.13 11.819-6.519 6.57-13.235 12.558-19.659 18.557Z"/><path fill="#8896A5" d="M195.956 218.961c.559 1.035.052 2.611.716 3.247 6.108 5.853 12.442 11.484 18.933 17.386.263 5.888.161 11.694-.052 18.093-.297.858-.402 1.05-.507 1.241l-28.925-30.184c2.482-2.615 6.155-6.2 9.835-9.783Z"/><path fill="#919CA8" d="M495.81 239.589c6.456-6.454 12.879-12.453 19.569-18.726 3.23 2.786 6.193 5.846 9.187 8.938l-28.788 29.242c0-6.715 0-12.857.032-19.454Z"/><path fill="#949FAA" d="M308.991 356.981c1.124-.079 2.779.268 3.38-.333 6.601-6.604 12.887-13.676 19.475-20.735 3.01 2.188 6.084 5.037 9.493 8.004l-21.55 23.058c-3.761-2.997-6.884-6.013-10.412-9.261-.416-.642-.265-.378-.386-.733Z"/><path fill="#F0F2F4" d="M545.82 178.66c-3.563-3.141-7.201-6.611-11.342-10.262l8.958-9.754c3.377 4.838 6.584 9.522 9.65 14.549-2.409 1.774-4.947 3.635-7.266 5.467Z"/><path fill="#8896A5" d="M545.811 178.658c2.334-1.926 4.734-3.524 7.254-5.475 3.987 3.94 7.972 8.135 11.671 12.568 1.669 1.999 3.397 4.488.489 6.951-2.66 2.252-4.464.402-6.344-1.414-4.291-4.146-8.665-8.208-13.07-12.63Z"/><path fill="#7C8791" d="M165.182 177.668c-4.853 5.336-9.845 11.056-14.94 16.151-.79.789-3.507.41-4.788-.349-.715-.424-.959-3.209-.299-4.131 4.22-5.895 9.098-11.578 13.95-16.955.024 2.114-.07 3.702-.142 5.363 1.987.062 4.222.076 6.219-.079Z"/><path fill="#F0F2F4" d="M165.163 177.697c-2.225.174-4.213.112-6.2.05.072-1.661.145-3.323.133-5.356 1.947-3.702 4-7.019 6-10.368 1.299-2.174 2.63-2.457 4.647-.682 2.353 2.069 4.983 3.825 7.964 6.072-5.146 4.2-8.726 7.123-12.544 10.284Z"/><path fill="#83919C" d="M63.02 106.053c-2.406-2.498-4.558-4.743-7.596-7.91l16.542-3.663-3.338 15.802-2.084.991c-1.09-1.655-2.18-3.31-3.524-5.22ZM639.257 97.888c.78-1.208 1.769-2.785 2.451-2.662 3.859.695 7.645 1.798 12.566 3.042l-12.378 13.337c-1.025-5.306-1.798-9.303-2.639-13.717Z"/><path fill="#7C8791" d="M619.612 128.37c2.258.701 4.126 1.333 7.03 2.315l-10.714 12.064-3.994-15.943c2.975.61 5.132 1.052 7.678 1.564ZM97.222 128.879c-.95 4.375-1.82 8.379-2.831 13.025l-11.368-10.52c4.714-1.716 8.491-3.165 12.34-4.388.44-.14 1.281.978 1.859 1.883Z"/><path fill="#83919C" d="M43.991 76.057c-.66 1.855-1.227 3.337-2.16 5.775l-8.307-10.068 13.625-6.628a2582.116 2582.116 0 0 0-3.158 10.921Z"/><path fill="#7C8791" d="M665.323 72.783c-.396-2.32-.742-4.239-1.314-7.398l13.007 6.175-9.352 10.3c-.991-3.751-1.641-6.213-2.341-9.077Z"/><path fill="#83919C" d="M599.497 160.037c.268 5.718-4.677 7-7.982 10.994l-3.614-14.442c4.287 1.242 7.794 2.258 11.596 3.448ZM120.75 156.328c-.468 4.575-1.292 9.066-2.014 13l-10.694-7.965c5.222-2.164 8.787-3.641 12.708-5.035Z"/><path fill="#C0C1C6" d="M483.297 275.743c-.319-9.631-.234-19.398-.28-29.165-.008-1.611-.517-3.578-.933-5.644.742.721 2.125 2.243 2.156 3.408.263 9.658.299 19.322.325 28.985.002.759-.591 1.52-1.268 2.416Z"/><path fill="#1A252F" d="M488.26 531.819c.27-.103.622.094 1.046.594-.273.105-.619-.095-1.046-.594Z"/><path fill="#F9FAFA" fill-rule="evenodd" d="M245.156 216.89c-.821-1.131-1.643-2.262-1.835-3.779 70.912-.385 141.195-.385 211.638-.385L397.81 275.6h-.008c-30.904.044-61.809.089-93.237-.22-1.256-.646-1.989-.938-2.721-1.231-7.432-7.438-14.728-14.926-22.01-22.4-11.434-11.735-22.835-23.436-34.678-34.859ZM346 238a6 6 0 1 0 0 12h24a6 6 0 1 0 0-12h-24Zm-19 6a8 8 0 1 1-16 0 8 8 0 0 1 16 0Zm70 8a8 8 0 1 0 0-16 8 8 0 0 0 0 16ZM527.267 676.909c0-15.656-2.459-24.172-13.965-32.212-3-2.705-5.747-5.163-8.494-7.62l-.002-.002-1.303.749c0 2.315-.025 4.631-.05 6.947-.06 5.499-.12 10.999.158 16.482.237 4.68-1.252 5.836-5.848 5.832-75.371-.066-150.743-.022-226.114.022l-54.373.03c-9.818.005-9.819-.014-9.823-9.767-.002-4.531-.001-9.062-.001-13.593v-6.046l-1.526-.556c-1.641 1.567-3.285 3.13-4.929 4.693-5.31 5.048-10.62 10.096-15.814 15.26-.879.874-1.008 2.783-1.013 4.214-.012 2.986-.028 5.972-.045 8.958-.065 11.68-.129 23.362.116 35.037.239 11.368 3.348 21.906 10.158 31.328 12.457 17.236 29.863 23.74 50.307 23.741 19.781.001 39.562-.049 59.343-.098 20.216-.05 40.432-.101 60.648-.098 14.865.003 29.729.066 44.593.13 19.467.083 38.934.167 58.4.112 31.372-.087 53.757-18.488 58.537-49.139 1.551-9.943 1.365-17.759 1.172-25.907-.065-2.762-.132-5.562-.132-8.497ZM353 740c14.359 0 26-11.641 26-26s-11.641-26-26-26-26 11.641-26 26 11.641 26 26 26Z" clip-rule="evenodd"/></svg>